<?xml version="1.0" encoding="iso-8859-1"?>
<!-- Generator: Adobe Illustrator 19.0.0, SVG Export Plug-In . SVG Version: 6.00 Build 0)  -->
<svg version="1.1" id="Capa_1" xmlns="http://www.w3.org/2000/svg" xmlns:xlink="http://www.w3.org/1999/xlink" x="0px" y="0px"
	 viewBox="0 0 512 512" style="enable-background:new 0 0 512 512;" xml:space="preserve">
<path style="fill:#72A3FC;" d="M256,0C114.517,0,0,114.497,0,256c0,141.483,114.497,256,256,256c141.483,0,256-114.497,256-256
	C512,114.517,397.503,0,256,0z"/>
<path style="fill:#2892FC;" d="M256,0v512c141.483,0,256-114.497,256-256C512,114.517,397.503,0,256,0z"/>
<path style="fill:#F9F9F9;" d="M390.055,236.359c-3.351-8.985-14.378-12.704-22.51-7.149l-53.34,36.4
	c-6.843,4.669-8.604,14.002-3.935,20.845c4.668,6.843,14.002,8.606,20.845,3.935l19.432-13.261l-7.912,28.446
	c-10.59,38.07-38.401,65.245-71.635,71.597V200.6h33c8.284,0,15-6.716,15-15s-6.716-15-15-15h-33v-12.58
	c17.459-6.192,30-22.865,30-42.42c0-24.813-20.187-45-45-45s-45,20.187-45,45c0,19.555,12.541,36.228,30,42.42v12.58h-33
	c-8.284,0-15,6.716-15,15s6.716,15,15,15h33v176.573c-33.234-6.353-61.045-33.527-71.635-71.597l-7.912-28.446l19.432,13.261
	c6.842,4.67,16.174,2.908,20.845-3.935c4.67-6.843,2.908-16.176-3.935-20.845l-53.34-36.4c-8.074-5.498-19.131-1.92-22.51,7.149
	l-22.33,59.891c-2.895,7.762,1.052,16.401,8.814,19.295c7.777,2.902,16.407-1.069,19.295-8.814l6.199-16.625l6.54,23.509
	c14.798,53.2,55.891,87.831,100.537,93.957V426.4c0,8.284,6.716,15,15,15c8.284,0,15-6.716,15-15v-18.829
	c44.652-6.127,85.741-40.762,100.537-93.957l6.54-23.509l6.199,16.625c2.895,7.765,11.54,11.709,19.295,8.814
	c7.763-2.894,11.709-11.533,8.814-19.295L390.055,236.359z M256,100.6c8.271,0,15,6.729,15,15s-6.729,15-15,15s-15-6.729-15-15
	S247.729,100.6,256,100.6z"/>
<path style="fill:#DFE4EA;" d="M412.385,296.25l-22.33-59.891c-3.351-8.985-14.378-12.704-22.51-7.149l-53.34,36.4
	c-6.843,4.669-8.604,14.002-3.935,20.845c4.668,6.843,14.002,8.606,20.845,3.935l19.432-13.261l-7.912,28.446
	c-10.59,38.07-38.401,65.245-71.635,71.597V200.6h33c8.284,0,15-6.716,15-15s-6.716-15-15-15h-33v-12.58
	c17.459-6.192,30-22.865,30-42.42c0-24.813-20.187-45-45-45v30c8.271,0,15,6.729,15,15s-6.729,15-15,15v310.8
	c8.284,0,15-6.716,15-15v-18.829c44.652-6.127,85.741-40.762,100.537-93.957l6.54-23.509l6.199,16.625
	c2.895,7.765,11.54,11.709,19.295,8.814C411.333,312.651,415.279,304.012,412.385,296.25z"/>
<g>
</g>
<g>
</g>
<g>
</g>
<g>
</g>
<g>
</g>
<g>
</g>
<g>
</g>
<g>
</g>
<g>
</g>
<g>
</g>
<g>
</g>
<g>
</g>
<g>
</g>
<g>
</g>
<g>
</g>
</svg>
