<svg xmlns="http://www.w3.org/2000/svg" width="328.68" height="80.017" viewBox="0 0 328.68 80.017">
  <g id="Group_1578" data-name="Group 1578" transform="translate(10556.092 9453.905)">
    <g id="Group_1576" data-name="Group 1576" transform="translate(-10189.171 -10137.333) rotate(90)">
      <g id="Group_1575" data-name="Group 1575" transform="translate(691 46.666)">
        <path id="Path_1399" data-name="Path 1399" d="M723.437,46.666C710.308,46.666,691,87.242,691,117.837V323.9c0,17.187,13.314,34.6,32.437,34.6s32.437-17.414,32.437-34.6V117.837C755.873,87.242,736.565,46.666,723.437,46.666Z" transform="translate(-691 -46.666)" fill="#595d61"/>
        <path id="Path_1400" data-name="Path 1400" d="M696,345.2v7.288l8.479,4.295,5.869,11.452H739l5.869-11.452,8.479-4.295V345.2Z" transform="translate(-693.65 -204.863)" opacity="0.5" style="mix-blend-mode: multiply;isolation: isolate"/>
        <g id="Group_1559" data-name="Group 1559" transform="translate(3.761 138.931)">
          <g id="Group_1558" data-name="Group 1558">
            <path id="Path_1401" data-name="Path 1401" d="M722.906,378.3h28.656l5.869-11.452H717.037Z" transform="translate(-708.558 -355.261)" fill="#cacbcf"/>
            <path id="Path_1402" data-name="Path 1402" d="M756.352,342.2H699v7.288l8.479,4.295h40.393l8.479-4.295Z" transform="translate(-699 -342.204)" fill="#f3f5fa"/>
          </g>
          <rect id="Rectangle_144" data-name="Rectangle 144" width="6.111" height="3.291" transform="translate(11.517 3.9)" fill="#92a8d7"/>
          <rect id="Rectangle_145" data-name="Rectangle 145" width="6.111" height="3.291" transform="translate(25.62 3.9)" fill="#92a8d7"/>
          <rect id="Rectangle_146" data-name="Rectangle 146" width="6.111" height="3.291" transform="translate(39.723 3.9)" fill="#92a8d7"/>
        </g>
        <path id="Path_1403" data-name="Path 1403" d="M703.611,212.891H697.5V198.318h6.111Zm8.462-14.573h-6.111v14.573h6.111Zm8.462,0h-6.111v14.573h6.111Zm8.462,0h-6.111v14.573H729Zm8.462,0h-6.111v14.573h6.111Zm8.462,0h-6.111v14.573h6.111Zm8.462,0H748.27v14.573h6.111Zm-50.77-17.864H697.5v14.573h6.111Zm8.462,0h-6.111v14.573h6.111Zm8.462,0h-6.111v14.573h6.111Zm8.462,0h-6.111v14.573H729Zm8.462,0h-6.111v14.573h6.111Zm8.462,0h-6.111v14.573h6.111Zm8.462,0H748.27v14.573h6.111Zm-50.77-17.864H697.5v14.573h6.111Zm8.462,0h-6.111v14.573h6.111Zm8.462,0h-6.111v14.573h6.111Zm8.462,0h-6.111v14.573H729Zm8.462,0h-6.111v14.573h6.111Zm8.462,0h-6.111v14.573h6.111Zm8.462,0H748.27v14.573h6.111Zm-50.77-17.864H697.5V159.3h6.111Zm8.462,0h-6.111V159.3h6.111Zm8.462,0h-6.111V159.3h6.111Zm8.462,0h-6.111V159.3H729Zm8.462,0h-6.111V159.3h6.111Zm8.462,0h-6.111V159.3h6.111Zm8.462,0H748.27V159.3h6.111Zm-46.539-17.864h-6.111v14.573h6.111Zm8.462,0h-6.111v14.573H716.3Zm8.462,0h-6.111v14.573h6.111Zm8.462,0h-6.111v14.573h6.111Zm8.462,0h-6.111v14.573h6.111Zm8.462,0h-6.111v14.573h6.111ZM712.073,109h-6.111v14.573h6.111Zm8.462,0h-6.111v14.573h6.111ZM729,109h-6.111v14.573H729Zm8.462,0h-6.111v14.573h6.111Zm8.462,0h-6.111v14.573h6.111Z" transform="translate(-694.444 -79.697)" opacity="0.5" style="mix-blend-mode: multiply;isolation: isolate"/>
        <g id="Group_1566" data-name="Group 1566" transform="translate(3.996 28.363)">
          <g id="Group_1560" data-name="Group 1560" transform="translate(0 89.318)">
            <rect id="Rectangle_147" data-name="Rectangle 147" width="6.111" height="14.573" fill="#dce3f7"/>
            <rect id="Rectangle_148" data-name="Rectangle 148" width="6.111" height="14.573" transform="translate(8.462)" fill="#5abd9e"/>
            <rect id="Rectangle_149" data-name="Rectangle 149" width="6.111" height="14.573" transform="translate(16.923)" fill="#e35460"/>
            <rect id="Rectangle_150" data-name="Rectangle 150" width="6.111" height="14.573" transform="translate(25.385)" fill="#5abd9e"/>
            <rect id="Rectangle_151" data-name="Rectangle 151" width="6.111" height="14.573" transform="translate(33.847)" fill="#debb2a"/>
            <rect id="Rectangle_152" data-name="Rectangle 152" width="6.111" height="14.573" transform="translate(42.309)" fill="#e35460"/>
            <rect id="Rectangle_153" data-name="Rectangle 153" width="6.111" height="14.573" transform="translate(50.77)" fill="#debb2a"/>
          </g>
          <g id="Group_1561" data-name="Group 1561" transform="translate(0 71.454)">
            <rect id="Rectangle_154" data-name="Rectangle 154" width="6.111" height="14.573" transform="translate(0 0)" fill="#5abd9e"/>
            <rect id="Rectangle_155" data-name="Rectangle 155" width="6.111" height="14.573" transform="translate(8.462 0)" fill="#debb2a"/>
            <rect id="Rectangle_156" data-name="Rectangle 156" width="6.111" height="14.573" transform="translate(16.923 0)" fill="#dce3f7"/>
            <rect id="Rectangle_157" data-name="Rectangle 157" width="6.111" height="14.573" transform="translate(25.385 0)" fill="#debb2a"/>
            <rect id="Rectangle_158" data-name="Rectangle 158" width="6.111" height="14.573" transform="translate(33.847 0)" fill="#e35460"/>
            <rect id="Rectangle_159" data-name="Rectangle 159" width="6.111" height="14.573" transform="translate(42.309 0)" fill="#debb2a"/>
            <rect id="Rectangle_160" data-name="Rectangle 160" width="6.111" height="14.573" transform="translate(50.77 0)" fill="#e0ccbf"/>
          </g>
          <g id="Group_1562" data-name="Group 1562" transform="translate(0 53.591)">
            <rect id="Rectangle_161" data-name="Rectangle 161" width="6.111" height="14.573" fill="#debb2a"/>
            <rect id="Rectangle_162" data-name="Rectangle 162" width="6.111" height="14.573" transform="translate(8.462)" fill="#e0ccbf"/>
            <rect id="Rectangle_163" data-name="Rectangle 163" width="6.111" height="14.573" transform="translate(16.923)" fill="#debb2a"/>
            <rect id="Rectangle_164" data-name="Rectangle 164" width="6.111" height="14.573" transform="translate(25.385)" fill="#5abd9e"/>
            <rect id="Rectangle_165" data-name="Rectangle 165" width="6.111" height="14.573" transform="translate(33.847)" fill="#dce3f7"/>
            <rect id="Rectangle_166" data-name="Rectangle 166" width="6.111" height="14.573" transform="translate(42.309)" fill="#e35460"/>
            <rect id="Rectangle_167" data-name="Rectangle 167" width="6.111" height="14.573" transform="translate(50.77)" fill="#5abd9e"/>
          </g>
          <g id="Group_1563" data-name="Group 1563" transform="translate(0 35.727)">
            <rect id="Rectangle_168" data-name="Rectangle 168" width="6.111" height="14.573" fill="#e0ccbf"/>
            <rect id="Rectangle_169" data-name="Rectangle 169" width="6.111" height="14.573" transform="translate(8.462)" fill="#5abd9e"/>
            <rect id="Rectangle_170" data-name="Rectangle 170" width="6.111" height="14.573" transform="translate(16.923)" fill="#e35460"/>
            <rect id="Rectangle_171" data-name="Rectangle 171" width="6.111" height="14.573" transform="translate(25.385)" fill="#dce3f7"/>
            <rect id="Rectangle_172" data-name="Rectangle 172" width="6.111" height="14.573" transform="translate(33.847)" fill="#debb2a"/>
            <rect id="Rectangle_173" data-name="Rectangle 173" width="6.111" height="14.573" transform="translate(42.309)" fill="#5abd9e"/>
            <rect id="Rectangle_174" data-name="Rectangle 174" width="6.111" height="14.573" transform="translate(50.77)" fill="#dce3f7"/>
          </g>
          <g id="Group_1564" data-name="Group 1564" transform="translate(4.231 17.864)">
            <rect id="Rectangle_175" data-name="Rectangle 175" width="6.111" height="14.573" fill="#5abd9e"/>
            <rect id="Rectangle_176" data-name="Rectangle 176" width="6.111" height="14.573" transform="translate(8.462)" fill="#debb2a"/>
            <rect id="Rectangle_177" data-name="Rectangle 177" width="6.111" height="14.573" transform="translate(16.923)" fill="#e35460"/>
            <rect id="Rectangle_178" data-name="Rectangle 178" width="6.111" height="14.573" transform="translate(25.385)" fill="#debb2a"/>
            <rect id="Rectangle_179" data-name="Rectangle 179" width="6.111" height="14.573" transform="translate(33.847)" fill="#dce3f7"/>
            <rect id="Rectangle_180" data-name="Rectangle 180" width="6.111" height="14.573" transform="translate(42.309)" fill="#e35460"/>
          </g>
          <g id="Group_1565" data-name="Group 1565" transform="translate(8.462)">
            <rect id="Rectangle_181" data-name="Rectangle 181" width="6.111" height="14.573" fill="#e35460"/>
            <rect id="Rectangle_182" data-name="Rectangle 182" width="6.111" height="14.573" transform="translate(8.462)" fill="#debb2a"/>
            <rect id="Rectangle_183" data-name="Rectangle 183" width="6.111" height="14.573" transform="translate(16.923)" fill="#dce3f7"/>
            <rect id="Rectangle_184" data-name="Rectangle 184" width="6.111" height="14.573" transform="translate(25.385)" fill="#5abd9e"/>
            <rect id="Rectangle_185" data-name="Rectangle 185" width="6.111" height="14.573" transform="translate(33.847)" fill="#dce3f7"/>
          </g>
        </g>
        <path id="Path_1404" data-name="Path 1404" d="M703.611,473.664H697.5V459.091h6.111Zm8.462-14.573h-6.111v14.573h6.111Zm8.462,0h-6.111v14.573h6.111Zm8.462,0h-6.111v14.573H729Zm8.462,0h-6.111v14.573h6.111Zm8.462,0h-6.111v14.573h6.111Zm8.462,0H748.27v14.573h6.111Zm-50.77,17.864H697.5v14.573h6.111Zm8.462,0h-6.111v14.573h6.111Zm8.462,0h-6.111v14.573h6.111Zm8.462,0h-6.111v14.573H729Zm8.462,0h-6.111v14.573h6.111Zm8.462,0h-6.111v14.573h6.111Zm8.462,0H748.27v14.573h6.111Zm-50.77,17.864H697.5v14.573h6.111Zm8.462,0h-6.111v14.573h6.111Zm8.462,0h-6.111v14.573h6.111Zm8.462,0h-6.111v14.573H729Zm8.462,0h-6.111v14.573h6.111Zm8.462,0h-6.111v14.573h6.111Zm8.462,0H748.27v14.573h6.111Zm-46.539,17.864h-6.111v14.573h6.111Zm8.462,0h-6.111v14.573H716.3Zm8.462,0h-6.111v14.573h6.111Zm8.462,0h-6.111v14.573h6.111Zm8.462,0h-6.111v14.573h6.111Zm8.462,0h-6.111v14.573h6.111Zm-46.539-71.454H697.5V455.8h6.111Zm8.462,0h-6.111V455.8h6.111Zm8.462,0h-6.111V455.8h6.111Zm8.462,0h-6.111V455.8H729Zm8.462,0h-6.111V455.8h6.111Zm8.462,0h-6.111V455.8h6.111Zm8.462,0H748.27V455.8h6.111Zm-50.77-17.864H697.5v14.573h6.111Zm8.462,0h-6.111v14.573h6.111Zm8.462,0h-6.111v14.573h6.111Zm8.462,0h-6.111v14.573H729Zm8.462,0h-6.111v14.573h6.111Zm8.462,0h-6.111v14.573h6.111Zm8.462,0H748.27v14.573h6.111ZM703.611,405.5H697.5v14.573h6.111Zm8.462,0h-6.111v14.573h6.111Zm8.462,0h-6.111v14.573h6.111Zm8.462,0h-6.111v14.573H729Zm8.462,0h-6.111v14.573h6.111Zm8.462,0h-6.111v14.573h6.111Zm8.462,0H748.27v14.573h6.111Z" transform="translate(-694.444 -236.814)" opacity="0.5" style="mix-blend-mode: multiply;isolation: isolate"/>
        <g id="Group_1574" data-name="Group 1574" transform="translate(3.996 167.746)">
          <g id="Group_1567" data-name="Group 1567" transform="translate(0 53.591)">
            <rect id="Rectangle_186" data-name="Rectangle 186" width="6.111" height="14.573" fill="#e0ccbf"/>
            <rect id="Rectangle_187" data-name="Rectangle 187" width="6.111" height="14.573" transform="translate(8.462)" fill="#dce3f7"/>
            <rect id="Rectangle_188" data-name="Rectangle 188" width="6.111" height="14.573" transform="translate(16.923)" fill="#e35460"/>
            <rect id="Rectangle_189" data-name="Rectangle 189" width="6.111" height="14.573" transform="translate(25.385)" fill="#debb2a"/>
            <rect id="Rectangle_190" data-name="Rectangle 190" width="6.111" height="14.573" transform="translate(33.847)" fill="#e35460"/>
            <rect id="Rectangle_191" data-name="Rectangle 191" width="6.111" height="14.573" transform="translate(42.309)" fill="#5abd9e"/>
            <rect id="Rectangle_192" data-name="Rectangle 192" width="6.111" height="14.573" transform="translate(50.77)" fill="#e35460"/>
          </g>
          <g id="Group_1568" data-name="Group 1568" transform="translate(0 71.454)">
            <rect id="Rectangle_193" data-name="Rectangle 193" width="6.111" height="14.573" fill="#debb2a"/>
            <rect id="Rectangle_194" data-name="Rectangle 194" width="6.111" height="14.573" transform="translate(8.462)" fill="#e35460"/>
            <rect id="Rectangle_195" data-name="Rectangle 195" width="6.111" height="14.573" transform="translate(16.923)" fill="#dce3f7"/>
            <rect id="Rectangle_196" data-name="Rectangle 196" width="6.111" height="14.573" transform="translate(25.385)" fill="#e35460"/>
            <rect id="Rectangle_197" data-name="Rectangle 197" width="6.111" height="14.573" transform="translate(33.847)" fill="#5abd9e"/>
            <rect id="Rectangle_198" data-name="Rectangle 198" width="6.111" height="14.573" transform="translate(42.309)" fill="#dce3f7"/>
            <rect id="Rectangle_199" data-name="Rectangle 199" width="6.111" height="14.573" transform="translate(50.77)" fill="#debb2a"/>
          </g>
          <g id="Group_1569" data-name="Group 1569" transform="translate(0 89.318)">
            <rect id="Rectangle_200" data-name="Rectangle 200" width="6.111" height="14.573" fill="#e35460"/>
            <rect id="Rectangle_201" data-name="Rectangle 201" width="6.111" height="14.573" transform="translate(8.462)" fill="#5abd9e"/>
            <rect id="Rectangle_202" data-name="Rectangle 202" width="6.111" height="14.573" transform="translate(16.923)" fill="#debb2a"/>
            <rect id="Rectangle_203" data-name="Rectangle 203" width="6.111" height="14.573" transform="translate(25.385)" fill="#dce3f7"/>
            <rect id="Rectangle_204" data-name="Rectangle 204" width="6.111" height="14.573" transform="translate(33.847)" fill="#dce3f7"/>
            <rect id="Rectangle_205" data-name="Rectangle 205" width="6.111" height="14.573" transform="translate(42.309)" fill="#5abd9e"/>
            <rect id="Rectangle_206" data-name="Rectangle 206" width="6.111" height="14.573" transform="translate(50.77)" fill="#e35460"/>
          </g>
          <g id="Group_1570" data-name="Group 1570" transform="translate(4.231 107.182)">
            <rect id="Rectangle_207" data-name="Rectangle 207" width="6.111" height="14.573" fill="#dce3f7"/>
            <rect id="Rectangle_208" data-name="Rectangle 208" width="6.111" height="14.573" transform="translate(8.462)" fill="#5abd9e"/>
            <rect id="Rectangle_209" data-name="Rectangle 209" width="6.111" height="14.573" transform="translate(16.923)" fill="#e35460"/>
            <rect id="Rectangle_210" data-name="Rectangle 210" width="6.111" height="14.573" transform="translate(25.385)" fill="#5abd9e"/>
            <rect id="Rectangle_211" data-name="Rectangle 211" width="6.111" height="14.573" transform="translate(33.847)" fill="#e35460"/>
            <rect id="Rectangle_212" data-name="Rectangle 212" width="6.111" height="14.573" transform="translate(42.309)" fill="#debb2a"/>
          </g>
          <g id="Group_1571" data-name="Group 1571" transform="translate(0 35.727)">
            <rect id="Rectangle_213" data-name="Rectangle 213" width="6.111" height="14.573" fill="#debb2a"/>
            <rect id="Rectangle_214" data-name="Rectangle 214" width="6.111" height="14.573" transform="translate(8.462)" fill="#5abd9e"/>
            <rect id="Rectangle_215" data-name="Rectangle 215" width="6.111" height="14.573" transform="translate(16.923)" fill="#debb2a"/>
            <rect id="Rectangle_216" data-name="Rectangle 216" width="6.111" height="14.573" transform="translate(25.385)" fill="#dce3f7"/>
            <rect id="Rectangle_217" data-name="Rectangle 217" width="6.111" height="14.573" transform="translate(33.847)" fill="#debb2a"/>
            <rect id="Rectangle_218" data-name="Rectangle 218" width="6.111" height="14.573" transform="translate(42.309)" fill="#e35460"/>
            <rect id="Rectangle_219" data-name="Rectangle 219" width="6.111" height="14.573" transform="translate(50.77)" fill="#e0ccbf"/>
          </g>
          <g id="Group_1572" data-name="Group 1572" transform="translate(0 17.864)">
            <rect id="Rectangle_220" data-name="Rectangle 220" width="6.111" height="14.573" fill="#e35460"/>
            <rect id="Rectangle_221" data-name="Rectangle 221" width="6.111" height="14.573" transform="translate(8.462)" fill="#dce3f7"/>
            <rect id="Rectangle_222" data-name="Rectangle 222" width="6.111" height="14.573" transform="translate(16.923)" fill="#5abd9e"/>
            <rect id="Rectangle_223" data-name="Rectangle 223" width="6.111" height="14.573" transform="translate(25.385)" fill="#e35460"/>
            <rect id="Rectangle_224" data-name="Rectangle 224" width="6.111" height="14.573" transform="translate(33.847)" fill="#5abd9e"/>
            <rect id="Rectangle_225" data-name="Rectangle 225" width="6.111" height="14.573" transform="translate(42.309)" fill="#e35460"/>
            <rect id="Rectangle_226" data-name="Rectangle 226" width="6.111" height="14.573" transform="translate(50.77)" fill="#debb2a"/>
          </g>
          <g id="Group_1573" data-name="Group 1573">
            <rect id="Rectangle_227" data-name="Rectangle 227" width="6.111" height="14.573" fill="#dce3f7"/>
            <rect id="Rectangle_228" data-name="Rectangle 228" width="6.111" height="14.573" transform="translate(8.462)" fill="#debb2a"/>
            <rect id="Rectangle_229" data-name="Rectangle 229" width="6.111" height="14.573" transform="translate(16.923)" fill="#e35460"/>
            <rect id="Rectangle_230" data-name="Rectangle 230" width="6.111" height="14.573" transform="translate(25.385)" fill="#5abd9e"/>
            <rect id="Rectangle_231" data-name="Rectangle 231" width="6.111" height="14.573" transform="translate(33.847)" fill="#debb2a"/>
            <rect id="Rectangle_232" data-name="Rectangle 232" width="6.111" height="14.573" transform="translate(42.309)" fill="#5abd9e"/>
            <rect id="Rectangle_233" data-name="Rectangle 233" width="6.111" height="14.573" transform="translate(50.77)" fill="#dce3f7"/>
          </g>
        </g>
      </g>
      <path id="Path_1405" data-name="Path 1405" d="M734.356,48.666c-2.592,0-5.424,1.587-8.3,4.361-4.4,4.622-8.86,11.926-12.675,20.523,1.557.045,2.54.2,3.24-1.352.774-1.721,10.436-20.819,17.735-20.819s16.961,19.1,17.735,20.819,1.892,1.344,3.754,1.344c.32,0,1.35-.034,1.35-.034l-.409-.906C754.133,68.628,740.323,48.666,734.356,48.666Z" transform="translate(-11.86 -1.06)" opacity="0.5" style="mix-blend-mode: multiply;isolation: isolate"/>
      <path id="Path_1406" data-name="Path 1406" d="M723.5,676v4.7h3.056c0,4.026,5.683,7.291,12.693,7.291s12.693-3.264,12.693-7.291H755V676Z" transform="translate(-17.222 -333.488)" opacity="0.5" style="mix-blend-mode: multiply;isolation: isolate"/>
      <rect id="Rectangle_234" data-name="Rectangle 234" width="31.496" height="4.701" transform="translate(707.688 341.102)" fill="#f3f5fa"/>
      <path id="Path_1407" data-name="Path 1407" d="M758.385,683H733c0,4.026,5.682,7.291,12.693,7.291S758.385,687.026,758.385,683Z" transform="translate(-22.256 -337.197)" fill="#cacbcf"/>
      <circle id="Ellipse_19" data-name="Ellipse 19" cx="4.701" cy="4.701" r="4.701" transform="translate(717.795 58.575)" opacity="0.5" style="mix-blend-mode: multiply;isolation: isolate"/>
      <circle id="Ellipse_20" data-name="Ellipse 20" cx="4.701" cy="4.701" r="4.701" transform="translate(718.736 57.635)" fill="#f3f5fa"/>
      <path id="Path_1408" data-name="Path 1408" d="M735.777,46.666c-6.683,0-14.965,10.516-21.489,24.876,1.862,0,2.98.377,3.754-1.344s10.436-20.819,17.735-20.819,16.961,19.1,17.735,20.819,1.892,1.344,3.754,1.344C750.742,57.182,742.46,46.666,735.777,46.666Z" transform="translate(-12.34)" fill="#f3f5fa"/>
    </g>
    <g id="Group_1577" data-name="Group 1577" transform="translate(-10180.746 -10144.905) rotate(90)" opacity="0.6">
      <g id="Group_1575-2" data-name="Group 1575" transform="translate(691 46.666)">
        <path id="Path_1399-2" data-name="Path 1399" d="M731.009,46.666C714.816,46.666,691,89.434,691,121.683V338.875c0,18.115,16.422,36.47,40.009,36.47s40.009-18.355,40.009-36.47V121.683C771.017,89.434,747.2,46.666,731.009,46.666Z" transform="translate(-691 -46.666)" fill="#ffd348"/>
        <path id="Path_1400-2" data-name="Path 1400" d="M696,345.2v7.682l10.658,4.527,7.377,12.071h36.02l7.377-12.071,10.658-4.527V345.2Z" transform="translate(-693.523 -197.28)" fill="#ffd348" opacity="0.5" style="mix-blend-mode: multiply;isolation: isolate"/>
        <g id="Group_1559-2" data-name="Group 1559" transform="translate(3.964 146.438)">
          <g id="Group_1558-2" data-name="Group 1558">
            <path id="Path_1401-2" data-name="Path 1401" d="M724.914,378.914h38.461l7.877-12.071H717.037Z" transform="translate(-708.1 -354.635)" fill="#ffd348"/>
            <path id="Path_1402-2" data-name="Path 1402" d="M771.089,342.2H699v7.682l10.658,4.527h50.773l10.658-4.527Z" transform="translate(-699 -342.204)" fill="#ffd348"/>
          </g>
          <rect id="Rectangle_144-2" data-name="Rectangle 144" width="6.441" height="3.468" transform="translate(14.756 4.11)" fill="#ffd348"/>
          <rect id="Rectangle_145-2" data-name="Rectangle 145" width="6.441" height="3.468" transform="translate(32.824 4.11)" fill="#ffd348"/>
          <rect id="Rectangle_146-2" data-name="Rectangle 146" width="6.441" height="3.468" transform="translate(50.892 4.11)" fill="#ffd348"/>
        </g>
        <path id="Path_1403-2" data-name="Path 1403" d="M705.192,218.5H697.5v-15.36h7.692Zm10.65-15.36H708.15V218.5h7.692Zm10.65,0H718.8V218.5h7.692Zm10.65,0h-7.692V218.5h7.692Zm10.65,0H740.1V218.5h7.692Zm10.65,0h-7.692V218.5h7.692Zm10.65,0H761.4V218.5h7.692Zm-63.9-18.829H697.5v15.36h7.692Zm10.65,0H708.15v15.36h7.692Zm10.65,0H718.8v15.36h7.692Zm10.65,0h-7.692v15.36h7.692Zm10.65,0H740.1v15.36h7.692Zm10.65,0h-7.692v15.36h7.692Zm10.65,0H761.4v15.36h7.692Zm-63.9-18.829H697.5v15.36h7.692Zm10.65,0H708.15v15.36h7.692Zm10.65,0H718.8v15.36h7.692Zm10.65,0h-7.692v15.36h7.692Zm10.65,0H740.1v15.36h7.692Zm10.65,0h-7.692v15.36h7.692Zm10.65,0H761.4v15.36h7.692Zm-63.9-18.829H697.5v15.36h7.692Zm10.65,0H708.15v15.36h7.692Zm10.65,0H718.8v15.36h7.692Zm10.65,0h-7.692v15.36h7.692Zm10.65,0H740.1v15.36h7.692Zm10.65,0h-7.692v15.36h7.692Zm10.65,0H761.4v15.36h7.692Zm-58.577-18.829h-7.692v15.36h7.692Zm10.65,0h-7.692v15.36h7.692Zm10.65,0h-7.692v15.36h7.692Zm10.65,0h-7.692v15.36h7.692Zm10.65,0h-7.692v15.36h7.692Zm10.65,0h-7.692v15.36h7.692ZM715.842,109H708.15v15.36h7.692Zm10.65,0H718.8v15.36h7.692Zm10.65,0h-7.692v15.36h7.692Zm10.65,0H740.1v15.36h7.692Zm10.65,0h-7.692v15.36h7.692Z" transform="translate(-694.279 -78.114)" fill="#ffd348" opacity="0.5" style="mix-blend-mode: multiply;isolation: isolate"/>
        <g id="Group_1566-2" data-name="Group 1566" transform="translate(4.212 29.895)">
          <g id="Group_1560-2" data-name="Group 1560" transform="translate(0 94.144)">
            <rect id="Rectangle_147-2" data-name="Rectangle 147" width="6.441" height="15.36" fill="#ffd348"/>
            <rect id="Rectangle_148-2" data-name="Rectangle 148" width="6.441" height="15.36" transform="translate(8.919)" fill="#ffd348"/>
            <rect id="Rectangle_149-2" data-name="Rectangle 149" width="6.441" height="15.36" transform="translate(21.717)" fill="#ffd348"/>
            <rect id="Rectangle_150-2" data-name="Rectangle 150" width="6.441" height="15.36" transform="translate(32.576)" fill="#ffd348"/>
            <rect id="Rectangle_151-2" data-name="Rectangle 151" width="6.441" height="15.36" transform="translate(43.435)" fill="#ffd348"/>
            <rect id="Rectangle_152-2" data-name="Rectangle 152" width="6.441" height="15.36" transform="translate(56.233)" fill="#ffd348"/>
            <rect id="Rectangle_153-2" data-name="Rectangle 153" width="6.441" height="15.36" transform="translate(65.152)" fill="#ffd348"/>
          </g>
          <g id="Group_1561-2" data-name="Group 1561" transform="translate(0 75.315)">
            <rect id="Rectangle_154-2" data-name="Rectangle 154" width="6.441" height="15.36" transform="translate(0 0)" fill="#ffd348"/>
            <rect id="Rectangle_155-2" data-name="Rectangle 155" width="6.441" height="15.36" transform="translate(8.919 0)" fill="#ffd348"/>
            <rect id="Rectangle_156-2" data-name="Rectangle 156" width="6.441" height="15.36" transform="translate(21.717 0)" fill="#ffd348"/>
            <rect id="Rectangle_157-2" data-name="Rectangle 157" width="6.441" height="15.36" transform="translate(32.576 0)" fill="#ffd348"/>
            <rect id="Rectangle_158-2" data-name="Rectangle 158" width="6.441" height="15.36" transform="translate(43.435 0)" fill="#ffd348"/>
            <rect id="Rectangle_159-2" data-name="Rectangle 159" width="6.441" height="15.36" transform="translate(56.233 0)" fill="#ffd348"/>
            <rect id="Rectangle_160-2" data-name="Rectangle 160" width="6.441" height="15.36" transform="translate(65.152 0)" fill="#ffd348"/>
          </g>
          <g id="Group_1562-2" data-name="Group 1562" transform="translate(0 56.487)">
            <rect id="Rectangle_161-2" data-name="Rectangle 161" width="6.441" height="15.36" fill="#ffd348"/>
            <rect id="Rectangle_162-2" data-name="Rectangle 162" width="6.441" height="15.36" transform="translate(8.919)" fill="#ffd348"/>
            <rect id="Rectangle_163-2" data-name="Rectangle 163" width="6.441" height="15.36" transform="translate(21.717)" fill="#ffd348"/>
            <rect id="Rectangle_164-2" data-name="Rectangle 164" width="6.441" height="15.36" transform="translate(32.576)" fill="#ffd348"/>
            <rect id="Rectangle_165-2" data-name="Rectangle 165" width="6.441" height="15.36" transform="translate(43.435)" fill="#ffd348"/>
            <rect id="Rectangle_166-2" data-name="Rectangle 166" width="6.441" height="15.36" transform="translate(56.233)" fill="#ffd348"/>
            <rect id="Rectangle_167-2" data-name="Rectangle 167" width="6.441" height="15.36" transform="translate(65.152)" fill="#ffd348"/>
          </g>
          <g id="Group_1563-2" data-name="Group 1563" transform="translate(0 37.658)">
            <rect id="Rectangle_168-2" data-name="Rectangle 168" width="6.441" height="15.36" fill="#ffd348"/>
            <rect id="Rectangle_169-2" data-name="Rectangle 169" width="6.441" height="15.36" transform="translate(8.919)" fill="#ffd348"/>
            <rect id="Rectangle_170-2" data-name="Rectangle 170" width="6.441" height="15.36" transform="translate(21.717)" fill="#ffd348"/>
            <rect id="Rectangle_171-2" data-name="Rectangle 171" width="6.441" height="15.36" transform="translate(32.576)" fill="#ffd348"/>
            <rect id="Rectangle_172-2" data-name="Rectangle 172" width="6.441" height="15.36" transform="translate(43.435)" fill="#ffd348"/>
            <rect id="Rectangle_173-2" data-name="Rectangle 173" width="6.441" height="15.36" transform="translate(56.233)" fill="#ffd348"/>
            <rect id="Rectangle_174-2" data-name="Rectangle 174" width="6.441" height="15.36" transform="translate(65.152)" fill="#ffd348"/>
          </g>
          <g id="Group_1564-2" data-name="Group 1564" transform="translate(4.459 18.829)">
            <rect id="Rectangle_175-2" data-name="Rectangle 175" width="6.441" height="15.36" fill="#ffd348"/>
            <rect id="Rectangle_176-2" data-name="Rectangle 176" width="6.441" height="15.36" transform="translate(11.247)" fill="#ffd348"/>
            <rect id="Rectangle_177-2" data-name="Rectangle 177" width="6.441" height="15.36" transform="translate(22.493)" fill="#ffd348"/>
            <rect id="Rectangle_178-2" data-name="Rectangle 178" width="6.441" height="15.36" transform="translate(33.74)" fill="#ffd348"/>
            <rect id="Rectangle_179-2" data-name="Rectangle 179" width="6.441" height="15.36" transform="translate(44.987)" fill="#ffd348"/>
            <rect id="Rectangle_180-2" data-name="Rectangle 180" width="6.441" height="15.36" transform="translate(56.233)" fill="#ffd348"/>
          </g>
          <g id="Group_1565-2" data-name="Group 1565" transform="translate(8.919)">
            <rect id="Rectangle_181-2" data-name="Rectangle 181" width="6.441" height="15.36" fill="#ffd348"/>
            <rect id="Rectangle_182-2" data-name="Rectangle 182" width="6.441" height="15.36" transform="translate(11.829)" fill="#ffd348"/>
            <rect id="Rectangle_183-2" data-name="Rectangle 183" width="6.441" height="15.36" transform="translate(23.657)" fill="#ffd348"/>
            <rect id="Rectangle_184-2" data-name="Rectangle 184" width="6.441" height="15.36" transform="translate(35.486)" fill="#ffd348"/>
            <rect id="Rectangle_185-2" data-name="Rectangle 185" width="6.441" height="15.36" transform="translate(47.314)" fill="#ffd348"/>
          </g>
        </g>
        <path id="Path_1404-2" data-name="Path 1404" d="M705.192,477.347H697.5v-15.36h7.692Zm10.65-15.36H708.15v15.36h7.692Zm10.65,0H718.8v15.36h7.692Zm10.65,0h-7.692v15.36h7.692Zm10.65,0H740.1v15.36h7.692Zm10.65,0h-7.692v15.36h7.692Zm10.65,0H761.4v15.36h7.692Zm-63.9,18.829H697.5v15.36h7.692Zm10.65,0H708.15v15.36h7.692Zm10.65,0H718.8v15.36h7.692Zm10.65,0h-7.692v15.36h7.692Zm10.65,0H740.1v15.36h7.692Zm10.65,0h-7.692v15.36h7.692Zm10.65,0H761.4v15.36h7.692Zm-63.9,18.829H697.5V515h7.692Zm10.65,0H708.15V515h7.692Zm10.65,0H718.8V515h7.692Zm10.65,0h-7.692V515h7.692Zm10.65,0H740.1V515h7.692Zm10.65,0h-7.692V515h7.692Zm10.65,0H761.4V515h7.692Zm-58.577,18.829h-7.692v15.36h7.692Zm10.65,0h-7.692v15.36h7.692Zm10.65,0h-7.692v15.36h7.692Zm10.65,0h-7.692v15.36h7.692Zm10.65,0h-7.692v15.36h7.692Zm10.65,0h-7.692v15.36h7.692Zm-58.577-75.315H697.5v15.36h7.692Zm10.65,0H708.15v15.36h7.692Zm10.65,0H718.8v15.36h7.692Zm10.65,0h-7.692v15.36h7.692Zm10.65,0H740.1v15.36h7.692Zm10.65,0h-7.692v15.36h7.692Zm10.65,0H761.4v15.36h7.692Zm-63.9-18.829H697.5v15.36h7.692Zm10.65,0H708.15v15.36h7.692Zm10.65,0H718.8v15.36h7.692Zm10.65,0h-7.692v15.36h7.692Zm10.65,0H740.1v15.36h7.692Zm10.65,0h-7.692v15.36h7.692Zm10.65,0H761.4v15.36h7.692Zm-63.9-18.829H697.5v15.36h7.692Zm10.65,0H708.15v15.36h7.692Zm10.65,0H718.8v15.36h7.692Zm10.65,0h-7.692v15.36h7.692Zm10.65,0H740.1v15.36h7.692Zm10.65,0h-7.692v15.36h7.692Zm10.65,0H761.4v15.36h7.692Z" transform="translate(-694.279 -227.699)" fill="#ffd348" opacity="0.5" style="mix-blend-mode: multiply;isolation: isolate"/>
        <g id="Group_1574-2" data-name="Group 1574" transform="translate(4.212 176.81)">
          <g id="Group_1567-2" data-name="Group 1567" transform="translate(0 56.487)">
            <rect id="Rectangle_186-2" data-name="Rectangle 186" width="6.441" height="15.36" fill="#ffd348"/>
            <rect id="Rectangle_187-2" data-name="Rectangle 187" width="6.441" height="15.36" transform="translate(8.919)" fill="#ffd348"/>
            <rect id="Rectangle_188-2" data-name="Rectangle 188" width="6.441" height="15.36" transform="translate(21.717)" fill="#ffd348"/>
            <rect id="Rectangle_189-2" data-name="Rectangle 189" width="6.441" height="15.36" transform="translate(32.576)" fill="#ffd348"/>
            <rect id="Rectangle_190-2" data-name="Rectangle 190" width="6.441" height="15.36" transform="translate(43.435)" fill="#ffd348"/>
            <rect id="Rectangle_191-2" data-name="Rectangle 191" width="6.441" height="15.36" transform="translate(56.233)" fill="#ffd348"/>
            <rect id="Rectangle_192-2" data-name="Rectangle 192" width="6.441" height="15.36" transform="translate(65.152)" fill="#ffd348"/>
          </g>
          <g id="Group_1568-2" data-name="Group 1568" transform="translate(0 75.315)">
            <rect id="Rectangle_193-2" data-name="Rectangle 193" width="6.441" height="15.36" fill="#ffd348"/>
            <rect id="Rectangle_194-2" data-name="Rectangle 194" width="6.441" height="15.36" transform="translate(8.919)" fill="#ffd348"/>
            <rect id="Rectangle_195-2" data-name="Rectangle 195" width="6.441" height="15.36" transform="translate(21.717)" fill="#ffd348"/>
            <rect id="Rectangle_196-2" data-name="Rectangle 196" width="6.441" height="15.36" transform="translate(32.576)" fill="#ffd348"/>
            <rect id="Rectangle_197-2" data-name="Rectangle 197" width="6.441" height="15.36" transform="translate(43.435)" fill="#ffd348"/>
            <rect id="Rectangle_198-2" data-name="Rectangle 198" width="6.441" height="15.36" transform="translate(56.233)" fill="#ffd348"/>
            <rect id="Rectangle_199-2" data-name="Rectangle 199" width="6.441" height="15.36" transform="translate(65.152)" fill="#ffd348"/>
          </g>
          <g id="Group_1569-2" data-name="Group 1569" transform="translate(0 94.144)">
            <rect id="Rectangle_200-2" data-name="Rectangle 200" width="6.441" height="15.36" fill="#ffd348"/>
            <rect id="Rectangle_201-2" data-name="Rectangle 201" width="6.441" height="15.36" transform="translate(8.919)" fill="#ffd348"/>
            <rect id="Rectangle_202-2" data-name="Rectangle 202" width="6.441" height="15.36" transform="translate(21.717)" fill="#ffd348"/>
            <rect id="Rectangle_203-2" data-name="Rectangle 203" width="6.441" height="15.36" transform="translate(32.576)" fill="#ffd348"/>
            <rect id="Rectangle_204-2" data-name="Rectangle 204" width="6.441" height="15.36" transform="translate(43.435)" fill="#ffd348"/>
            <rect id="Rectangle_205-2" data-name="Rectangle 205" width="6.441" height="15.36" transform="translate(56.233)" fill="#ffd348"/>
            <rect id="Rectangle_206-2" data-name="Rectangle 206" width="6.441" height="15.36" transform="translate(65.152)" fill="#ffd348"/>
          </g>
          <g id="Group_1570-2" data-name="Group 1570" transform="translate(4.459 112.973)">
            <rect id="Rectangle_207-2" data-name="Rectangle 207" width="6.441" height="15.36" fill="#ffd348"/>
            <rect id="Rectangle_208-2" data-name="Rectangle 208" width="6.441" height="15.36" transform="translate(11.247)" fill="#ffd348"/>
            <rect id="Rectangle_209-2" data-name="Rectangle 209" width="6.441" height="15.36" transform="translate(22.493)" fill="#ffd348"/>
            <rect id="Rectangle_210-2" data-name="Rectangle 210" width="6.441" height="15.36" transform="translate(33.74)" fill="#ffd348"/>
            <rect id="Rectangle_211-2" data-name="Rectangle 211" width="6.441" height="15.36" transform="translate(44.987)" fill="#ffd348"/>
            <rect id="Rectangle_212-2" data-name="Rectangle 212" width="6.441" height="15.36" transform="translate(56.233)" fill="#ffd348"/>
          </g>
          <g id="Group_1571-2" data-name="Group 1571" transform="translate(0 37.658)">
            <rect id="Rectangle_213-2" data-name="Rectangle 213" width="6.441" height="15.36" fill="#ffd348"/>
            <rect id="Rectangle_214-2" data-name="Rectangle 214" width="6.441" height="15.36" transform="translate(8.919)" fill="#ffd348"/>
            <rect id="Rectangle_215-2" data-name="Rectangle 215" width="6.441" height="15.36" transform="translate(21.717)" fill="#ffd348"/>
            <rect id="Rectangle_216-2" data-name="Rectangle 216" width="6.441" height="15.36" transform="translate(32.576)" fill="#ffd348"/>
            <rect id="Rectangle_217-2" data-name="Rectangle 217" width="6.441" height="15.36" transform="translate(43.435)" fill="#ffd348"/>
            <rect id="Rectangle_218-2" data-name="Rectangle 218" width="6.441" height="15.36" transform="translate(56.233)" fill="#ffd348"/>
            <rect id="Rectangle_219-2" data-name="Rectangle 219" width="6.441" height="15.36" transform="translate(65.152)" fill="#ffd348"/>
          </g>
          <g id="Group_1572-2" data-name="Group 1572" transform="translate(0 18.829)">
            <rect id="Rectangle_220-2" data-name="Rectangle 220" width="6.441" height="15.36" fill="#ffd348"/>
            <rect id="Rectangle_221-2" data-name="Rectangle 221" width="6.441" height="15.36" transform="translate(8.919)" fill="#ffd348"/>
            <rect id="Rectangle_222-2" data-name="Rectangle 222" width="6.441" height="15.36" transform="translate(21.717)" fill="#ffd348"/>
            <rect id="Rectangle_223-2" data-name="Rectangle 223" width="6.441" height="15.36" transform="translate(32.576)" fill="#ffd348"/>
            <rect id="Rectangle_224-2" data-name="Rectangle 224" width="6.441" height="15.36" transform="translate(43.435)" fill="#ffd348"/>
            <rect id="Rectangle_225-2" data-name="Rectangle 225" width="6.441" height="15.36" transform="translate(56.233)" fill="#ffd348"/>
            <rect id="Rectangle_226-2" data-name="Rectangle 226" width="6.441" height="15.36" transform="translate(65.152)" fill="#ffd348"/>
          </g>
          <g id="Group_1573-2" data-name="Group 1573">
            <rect id="Rectangle_227-2" data-name="Rectangle 227" width="6.441" height="15.36" fill="#ffd348"/>
            <rect id="Rectangle_228-2" data-name="Rectangle 228" width="6.441" height="15.36" transform="translate(8.919)" fill="#ffd348"/>
            <rect id="Rectangle_229-2" data-name="Rectangle 229" width="6.441" height="15.36" transform="translate(21.717)" fill="#ffd348"/>
            <rect id="Rectangle_230-2" data-name="Rectangle 230" width="6.441" height="15.36" transform="translate(32.576)" fill="#ffd348"/>
            <rect id="Rectangle_231-2" data-name="Rectangle 231" width="6.441" height="15.36" transform="translate(43.435)" fill="#ffd348"/>
            <rect id="Rectangle_232-2" data-name="Rectangle 232" width="6.441" height="15.36" transform="translate(56.233)" fill="#ffd348"/>
            <rect id="Rectangle_233-2" data-name="Rectangle 233" width="6.441" height="15.36" transform="translate(65.152)" fill="#ffd348"/>
          </g>
        </g>
      </g>
      <path id="Path_1405-2" data-name="Path 1405" d="M741.061,48.666c-3.42,0-7.157,1.673-10.954,4.6-5.81,4.872-11.692,12.57-16.727,21.632,2.055.048,3.353.214,4.276-1.425,1.022-1.814,13.772-21.944,23.4-21.944s22.383,20.131,23.4,21.944,2.5,1.416,4.954,1.416c.422,0,1.781-.036,1.781-.036l-.54-.955C767.16,69.706,748.936,48.666,741.061,48.666Z" transform="translate(-11.291 -1.009)" fill="#ffd348" opacity="0.5" style="mix-blend-mode: multiply;isolation: isolate"/>
      <path id="Path_1406-2" data-name="Path 1406" d="M723.5,676v4.955h3.221c0,4.244,5.99,7.685,13.378,7.685s13.378-3.441,13.378-7.685H756.7V676Z" transform="translate(-11.069 -317.502)" fill="#ffd348" opacity="0.5" style="mix-blend-mode: multiply;isolation: isolate"/>
      <rect id="Rectangle_234-2" data-name="Rectangle 234" width="33.198" height="4.955" transform="translate(714.409 357.012)" fill="#ffd348"/>
      <path id="Path_1407-2" data-name="Path 1407" d="M759.757,683H733c0,4.244,5.99,7.685,13.378,7.685S759.757,687.244,759.757,683Z" transform="translate(-15.37 -321.033)" fill="#ffd348"/>
      <circle id="Ellipse_19-2" data-name="Ellipse 19" cx="4.955" cy="4.955" r="4.955" transform="translate(724.865 59.219)" fill="#ffd348" opacity="0.5" style="mix-blend-mode: multiply;isolation: isolate"/>
      <circle id="Ellipse_20-2" data-name="Ellipse 20" cx="4.955" cy="4.955" r="4.955" transform="translate(726.054 58.228)" fill="#ffd348"/>
      <path id="Path_1408-2" data-name="Path 1408" d="M742.757,46.666c-8.854,0-19.827,11.085-28.469,26.22,2.467,0,3.948.4,4.973-1.416s13.826-21.944,23.5-21.944,22.471,20.131,23.5,21.944,2.506,1.416,4.973,1.416C762.584,57.751,751.611,46.666,742.757,46.666Z" transform="translate(-11.749 0)" fill="#ffd348"/>
    </g>
  </g>
</svg>
